<!-- Generated by IcoMoon.io -->
<svg version="1.1" xmlns="http://www.w3.org/2000/svg" width="1024" height="1024" viewBox="0 0 1024 1024">
<g id="icomoon-ignore">
</g>
<path fill="#4d5ae5" d="M1024 512c-1.221 281.844-229.982 509.85-511.995 509.85-140.852 0-268.419-56.876-360.989-148.915l0.024 0.024c-92.014-92.545-148.89-220.113-148.89-360.965 0-282.014 228.006-510.774 509.733-511.995h0.117c282.77 0 512 229.23 512 512v0z"></path>
<path fill="#f4f4fd" d="M581.12 376.32h33.28v-69.12h-51.2c-53.76 0-92.16 33.28-92.16 97.28v56.32h-58.88v71.68h58.88v184.32h74.24v-184.32h56.32l12.8-71.68h-66.56v-51.2c0-20.48 5.12-33.28 35.84-33.28z"></path>
</svg>
