<!-- Generated by IcoMoon.io -->
<svg version="1.1" xmlns="http://www.w3.org/2000/svg" width="1024" height="1024" viewBox="0 0 1024 1024">
<g id="icomoon-ignore">
</g>
<path fill="#4d5ae5" d="M1024 512c-1.221 281.844-229.982 509.85-511.995 509.85-140.852 0-268.419-56.876-360.989-148.915l0.024 0.024c-92.014-92.545-148.89-220.113-148.89-360.965 0-282.014 228.006-510.774 509.733-511.995h0.117c282.77 0 512 229.23 512 512v0z"></path>
<path fill="#f4f4fd" d="M716.8 427.52c0-20.48-5.12-35.84-10.24-51.2-5.12-12.8-12.8-25.6-25.6-35.84-9.243-9.593-20.298-17.367-32.623-22.782l-0.657-0.258c-40.295-4.132-87.072-6.488-134.4-6.488s-94.105 2.357-140.222 6.959l5.822-0.47c-12.8 5.12-25.6 12.8-35.84 25.6-10.819 9.784-19.483 21.73-25.344 35.18l-0.256 0.66c-2.56 12.8-7.68 25.6-7.68 48.64-0.807 17.772-1.267 38.611-1.267 59.557 0 55.686 3.25 110.612 9.572 164.6l-0.625-6.557 25.6 38.4c10.24 10.24 23.040 17.92 35.84 23.040l51.2 10.24c11.456 0.314 24.941 0.493 38.468 0.493 63.132 0 125.353-3.9 186.436-11.471l-7.304 0.738c27.618-11.179 48.844-33.241 58.657-60.725l0.223-0.715 10.24-48.64c1.514-25.244 2.377-54.761 2.377-84.48s-0.863-59.234-2.564-88.526l0.188 4.046zM678.4 593.92c0 20.48-2.56 30.72-5.12 38.4-7.68 17.92-23.040 33.28-40.96 38.4-36.040 3.204-77.967 5.031-120.32 5.031s-84.28-1.827-125.705-5.406l5.385 0.375c-7.68 0-15.36-7.68-23.040-15.36-7.68-5.12-12.8-12.8-15.36-23.040l-7.68-38.4c-0.521-14.465-0.817-31.461-0.817-48.527 0-55.053 3.087-109.385 9.096-162.832l-0.599 6.559c2.56-7.68 7.68-15.36 15.36-20.48 7.68-7.68 15.36-12.8 25.6-15.36 5.12-2.56 15.36-7.68 35.84-7.68 14.437-0.518 31.4-0.812 48.43-0.812 55.087 0 109.453 3.085 162.936 9.092l-6.566-0.599 23.040 15.36 15.36 23.040c0 7.68 5.12 17.92 5.12 38.4 1.482 24.48 2.326 53.102 2.326 81.92s-0.844 57.438-2.509 85.838l0.184-3.918z"></path>
<path fill="#f4f4fd" d="M512 407.040c-57.968 0-104.96 46.992-104.96 104.96s46.992 104.96 104.96 104.96v0c57.968 0 104.96-46.992 104.96-104.96s-46.992-104.96-104.96-104.96v0zM512 581.12c-38.174 0-69.12-30.946-69.12-69.12s30.946-69.12 69.12-69.12v0c38.174 0 69.12 30.946 69.12 69.12s-30.946 69.12-69.12 69.12v0zM647.68 401.92c0 14.138-11.462 25.6-25.6 25.6s-25.6-11.462-25.6-25.6v0c0-14.138 11.462-25.6 25.6-25.6s25.6 11.462 25.6 25.6v0z"></path>
</svg>
