<!-- Generated by IcoMoon.io -->
<svg version="1.1" xmlns="http://www.w3.org/2000/svg" width="1024" height="1024" viewBox="0 0 1024 1024">
<g id="icomoon-ignore">
</g>
<path fill="#4d5ae5" d="M1024 512c-1.221 281.844-229.982 509.85-511.995 509.85-140.852 0-268.419-56.876-360.989-148.915l0.024 0.024c-92.014-92.545-148.89-220.113-148.89-360.965 0-282.014 228.006-510.774 509.733-511.995h0.117c282.77 0 512 229.23 512 512v0z"></path>
<path fill="#f4f4fd" d="M716.8 716.8v-151.040c0-71.68-15.36-128-102.4-128-40.96 0-69.12 20.48-79.36 43.52v-38.4h-81.92v273.92h84.48v-135.68c0-35.84 5.12-69.12 51.2-69.12 43.52 0 43.52 40.96 43.52 71.68v133.12h84.48zM314.88 442.88h84.48v273.92h-84.48v-273.92zM358.4 307.2c-28.16 0-51.2 23.040-51.2 51.2 0 25.6 23.040 48.64 51.2 48.64 25.6 0 46.080-25.6 46.080-51.2s-20.48-48.64-46.080-48.64z"></path>
</svg>
