<svg xmlns="http://www.w3.org/2000/svg" width="40" height="40" fill="none"><path fill="#4D5AE5" d="M40 20A20 20 0 0 1 5.9 34.1 20 20 0 0 1 20 0a20 20 0 0 1 20 20Z"/><g fill="#F4F4FD" clip-path="url(#a)"><path d="M28 28v-5.9c0-2.8-.6-5-4-5-1.6 0-2.7.8-3.1 1.7v-1.5h-3.2V28H21v-5.3c0-1.4.2-2.7 2-2.7 1.7 0 1.7 1.6 1.7 2.8V28H28ZM12.3 17.3h3.3V28h-3.3V17.3ZM14 12c-1.1 0-2 .9-2 2 0 1 .9 1.9 2 1.9 1 0 1.8-1 1.8-2S15 12 14 12Z"/></g><defs><clipPath id="a"><path fill="#fff" d="M12 12h16v16H12z"/></clipPath></defs></svg>