<svg xmlns="http://www.w3.org/2000/svg" width="40" height="40" fill="none"><path fill="#4D5AE5" d="M40 20A20 20 0 0 1 5.9 34.1 20 20 0 0 1 20 0a20 20 0 0 1 20 20Z"/><g clip-path="url(#a)"><path fill="#F4F4FD" d="M28 15c-.6.3-1.2.5-1.9.6.7-.4 1.2-1 1.5-1.9-.7.4-1.4.7-2.1.8a3.3 3.3 0 0 0-5.6 3 9.3 9.3 0 0 1-6.8-3.4 3.3 3.3 0 0 0 1 4.4c-.5 0-1-.2-1.5-.4 0 1.6 1.2 3 2.7 3.2a3.3 3.3 0 0 1-1.5 0 3.3 3.3 0 0 0 3 2.4A6.6 6.6 0 0 1 12 25a9.3 9.3 0 0 0 14.4-8.3c.6-.4 1.2-1 1.6-1.7Z"/></g><defs><clipPath id="a"><path fill="#fff" d="M12 12h16v16H12z"/></clipPath></defs></svg>