<!-- Generated by IcoMoon.io -->
<svg version="1.1" xmlns="http://www.w3.org/2000/svg" width="1024" height="1024" viewBox="0 0 1024 1024">
<g id="icomoon-ignore">
</g>
<path fill="#4d5ae5" d="M1024 512c-1.221 281.844-229.982 509.85-511.995 509.85-140.852 0-268.419-56.876-360.989-148.915l0.024 0.024c-92.014-92.545-148.89-220.113-148.89-360.965 0-282.014 228.006-510.774 509.733-511.995h0.117c282.77 0 512 229.23 512 512v0z"></path>
<path fill="#f4f4fd" d="M716.8 384c-15.36 7.68-30.72 12.8-48.64 15.36 17.92-10.24 30.72-25.6 38.4-48.64-17.92 10.24-35.84 17.92-53.76 20.48-15.392-15.975-36.971-25.896-60.867-25.896-46.657 0-84.48 37.823-84.48 84.48 0 6.456 0.724 12.742 2.095 18.782l-0.108-0.566c-70.241-3.083-132.188-36.15-173.753-86.63l-0.327-0.41c-7.266 12.216-11.56 26.935-11.56 42.656 0 28.997 14.61 54.583 36.87 69.796l0.29 0.187c-12.8 0-25.6-5.12-38.4-10.24 0 40.96 30.72 76.8 69.12 81.92-5.768 1.405-12.39 2.211-19.2 2.211s-13.432-0.806-19.776-2.327l0.576 0.117c9.913 34.36 40.175 59.422 76.582 61.43l0.218 0.010c-28.069 21.548-63.696 34.531-102.354 34.531-7.235 0-14.363-0.455-21.358-1.337l0.832 0.086c36.871 24.596 82.2 39.249 130.952 39.249 131.488 0 238.080-106.592 238.080-238.080 0-4.802-0.142-9.57-0.422-14.301l0.031 0.652c15.36-10.24 30.72-25.6 40.96-43.52z"></path>
</svg>
